# xmcd CD database file
#
# Track frame offsets:
#	183
#	17618
#	35975
#	52695
#	81083
#	99730
#	115838
#	139650
#	152880
#	171895
#	190110
#	205628
#
# Disc length: 3135 seconds
#
# Revision: 0
# Processed by: cddbd v1.4PL0 Copyright (c) Steve Scherf et al.
# Submitted via: Feurio! 1.65 - http://www.feurio.com
#
DISCID=970c3d0c
DTITLE=Piano Connection - Handmade
DYEAR=1900
DGENRE=
TTITLE0=Up- and Downhill Boogie
TTITLE1=Leave Your Message
TTITLE2=Licence to Boogie
TTITLE3=Last Order
TTITLE4=Stethoscope
TTITLE5=Uncle David's Key School
TTITLE6=Primeval Village Blooze
TTITLE7=De Du De Dä
TTITLE8=Traincrash at the Morningsun
TTITLE9=Breathless Blues
TTITLE10=No, This Way
TTITLE11=We'll get Along
EXTD=
EXTT0=
EXTT1=
EXTT2=
EXTT3=
EXTT4=
EXTT5=
EXTT6=
EXTT7=
EXTT8=
EXTT9=
EXTT10=
EXTT11=
PLAYORDER=
